<svg width="95" height="95" viewBox="0 0 20 25" fill="none" xmlns="http://www.w3.org/2000/svg">
<path fill-rule="evenodd" clip-rule="evenodd" d="M7.27903 11.0494C6.54608 11.0973 5.73795 11.1713 5.48309 11.2139C4.39599 11.3958 3.49557 12.3296 2.5745 14.2299L2.05722 15.2972L1.83456 14.9604C1.63555 14.6594 1.5456 14.6203 0.985113 14.5911C0.438844 14.5626 0.335454 14.5905 0.181646 14.8076C-0.128192 15.2449 -0.0433473 15.6562 0.449172 16.1058C0.887387 16.5057 0.890385 16.5138 0.674054 16.7073C-0.188605 17.4792 -0.215146 19.4252 0.614974 21.0448C0.871506 21.5453 0.893495 21.7055 0.893495 23.0741C0.893495 25.104 0.764229 24.9991 3.26392 24.9991C4.98901 24.9991 5.20934 24.9781 5.37392 24.7983C5.47498 24.6878 5.55771 24.4655 5.55771 24.3042V24.0109H9.99983H14.4419V24.3233C14.4419 24.939 14.6476 24.9991 16.7551 24.9991C19.2324 24.9991 19.1062 25.1024 19.1062 23.0741C19.1062 21.7055 19.1281 21.5453 19.3847 21.0448C20.2079 19.4386 20.1894 17.4638 19.344 16.7203L19.1064 16.5111L19.5505 16.1058C20.0412 15.6578 20.1278 15.245 19.8217 14.8129C19.5638 14.4488 18.647 14.4638 18.2683 14.8383C18.1183 14.9865 17.9944 15.1965 17.993 15.3049C17.9916 15.4133 17.6996 14.9519 17.344 14.2794C16.6316 12.9318 15.8672 11.9016 15.298 11.5219C15.0536 11.3589 14.6344 11.2381 14.0653 11.1668C12.8526 11.0147 8.86731 10.9459 7.27903 11.0494ZM13.548 12.1565C14.5448 12.2843 14.8568 12.5335 15.6086 13.8012C16.1026 14.6343 16.6209 15.7542 16.5401 15.8141C16.5161 15.8318 15.7218 15.8101 14.7751 15.7657C12.5761 15.6629 7.57699 15.6629 5.28008 15.7657C4.30282 15.8096 3.48447 15.832 3.46159 15.8155C3.2818 15.6866 4.71227 13.1347 5.25554 12.6153C5.5676 12.3169 5.75828 12.2377 6.3453 12.1625C7.35144 12.0337 12.5569 12.0294 13.548 12.1565ZM3.85694 17.7601C4.66996 18.0647 5.03765 18.8795 4.72604 19.6862C4.26795 20.8722 2.60748 20.9645 1.98237 19.8388C1.3296 18.6634 2.57672 17.2806 3.85694 17.7601ZM17.4517 17.8922C18.446 18.5489 18.4264 19.9386 17.4156 20.4554C16.3565 20.9968 15.1823 20.2845 15.1823 19.1005C15.1823 18.5332 15.4562 18.1118 16.0046 17.8353C16.521 17.5749 16.9998 17.5938 17.4517 17.8922Z" fill="black"/>
<path fill-rule="evenodd" clip-rule="evenodd" d="M8.32589 0.030325C8.28292 0.0507352 8.22507 0.0904032 8.19734 0.11847C7.88204 0.437337 8.3889 1.58163 9.07829 2.1074C9.15324 2.16454 9.21456 2.21638 9.21456 2.22257C9.21456 2.22874 9.1772 2.25413 9.13156 2.27898C8.42324 2.66435 7.63913 3.43626 7.03734 4.34062C6.50923 5.13425 6.18287 5.90179 6.03663 6.69413C5.98706 6.96265 5.98798 7.59706 6.03828 7.82695C6.11533 8.17919 6.22798 8.43812 6.42353 8.71243C6.89314 9.37122 7.79913 9.79103 9.0429 9.92617C10.1898 10.0508 11.3259 10.0008 12.1568 9.78907C13.2262 9.51663 13.9117 8.96093 14.1636 8.16234C14.3358 7.61638 14.3035 6.91036 14.0743 6.20585C13.6616 4.93771 12.7127 3.60837 11.5974 2.73566C11.3973 2.57909 11.0579 2.36484 10.8521 2.26513L10.6635 2.17374L10.8354 1.99394C11.1338 1.68183 11.431 1.18435 11.5873 0.735286C11.6768 0.478274 11.6951 0.395384 11.6974 0.236165C11.6991 0.129231 11.6924 0.100774 11.6574 0.0659891C11.6201 0.0288016 11.5957 0.0245633 11.4355 0.0274735C11.2186 0.0313993 11.0041 0.0750907 10.458 0.226555C9.89454 0.382825 9.81503 0.396263 9.62828 0.366809C9.54126 0.353098 9.37568 0.302044 9.2341 0.245266C8.72404 0.0407547 8.64062 0.0122977 8.52326 0.00282504C8.43169 -0.00455777 8.38589 0.00182894 8.32589 0.030325ZM10.2477 4.02937C10.3191 4.08947 10.3471 4.1799 10.3473 4.35054L10.3474 4.47767L10.5183 4.52146C10.7597 4.58331 10.9196 4.66937 11.0716 4.81913C11.2048 4.95038 11.3111 5.13279 11.3335 5.26835C11.3565 5.40783 11.238 5.54327 11.0911 5.54529C10.962 5.54708 10.9113 5.5006 10.8228 5.29954C10.76 5.15659 10.5972 5.03743 10.4192 5.00406L10.3474 4.99056V5.45234C10.3474 5.80515 10.3531 5.9157 10.3718 5.92083C11.0379 6.10409 11.2891 6.3065 11.3655 6.72146C11.4146 6.98786 11.3163 7.28587 11.1136 7.48517C10.9711 7.62531 10.7504 7.73492 10.5205 7.77974L10.3519 7.81263L10.3437 7.98091C10.3344 8.17335 10.2999 8.24581 10.1975 8.28859C10.1154 8.32292 10.0653 8.32222 9.98814 8.28562C9.88712 8.23769 9.8591 8.16857 9.8591 7.96743V7.79169L9.71749 7.74894C9.36484 7.64244 9.12478 7.44943 8.97896 7.15515C8.8779 6.9512 8.86652 6.83769 8.93722 6.73857C8.9873 6.66835 9.10324 6.62296 9.18199 6.64275C9.26855 6.66447 9.3437 6.74632 9.38757 6.86658C9.41066 6.92993 9.46494 7.02197 9.50818 7.07109C9.59005 7.16409 9.81449 7.29343 9.84357 7.26435C9.85251 7.2554 9.85745 7.03788 9.85458 6.78095L9.84933 6.31382L9.67355 6.25355C9.41677 6.16548 9.27941 6.09201 9.15277 5.97495C8.96775 5.80396 8.8948 5.5873 8.92328 5.29349C8.94675 5.05154 9.13363 4.78361 9.37333 4.64829C9.46326 4.59753 9.59322 4.54952 9.8005 4.49046C9.8474 4.4771 9.84972 4.46896 9.8591 4.28484C9.86861 4.09812 9.87052 4.09163 9.93265 4.0362C10.0198 3.95845 10.1597 3.9554 10.2477 4.02937ZM9.70408 5.03224C9.58958 5.07867 9.4705 5.18062 9.43693 5.26095C9.39779 5.3546 9.40281 5.50066 9.44767 5.57425C9.47331 5.61628 9.53095 5.6581 9.62826 5.70527C9.86806 5.82146 9.84849 5.84868 9.85462 5.39042C9.8606 4.94343 9.8697 4.96507 9.70408 5.03224ZM10.3474 6.87048V7.31816L10.4109 7.30609C10.7512 7.24138 10.9424 7.02357 10.8758 6.77626C10.8354 6.62607 10.7083 6.52997 10.4479 6.45265L10.3474 6.42281V6.87048Z" fill="black"/>
</svg>
