<svg width="100" height="100" viewBox="0 0 19 25" fill="none" xmlns="http://www.w3.org/2000/svg">
<path fill-rule="evenodd" clip-rule="evenodd" d="M14.1619 0.0983592C13.834 0.274248 13.8172 0.359629 13.8172 1.85124V3.18229H13.6811C13.6062 3.18229 13.4469 3.23174 13.3271 3.29213C13.0169 3.44859 12.8896 3.71576 12.8896 4.21106V4.58451L12.566 4.61766C12.2008 4.65505 12.0438 4.72281 11.8578 4.92316C11.4273 5.38697 11.4913 6.07251 11.9981 6.42463C12.1825 6.55268 12.2424 6.56766 12.5473 6.562L12.8896 6.55566V6.81536V7.07507L12.5922 7.10871C12.2178 7.15108 12.0712 7.20644 11.8966 7.37149C11.6897 7.5671 11.5714 7.83257 11.5727 8.09867C11.5755 8.71513 12.0593 9.14087 12.663 9.05812L12.8896 9.02707V9.27189C12.8896 9.49538 12.8774 9.52174 12.7495 9.57471C12.5389 9.66194 12.4991 9.80854 12.4994 10.495C12.4997 11.2114 12.5434 11.4138 12.7444 11.629C12.8702 11.7637 12.8896 11.8215 12.8896 12.0618C12.8896 12.448 13.0426 12.7394 13.3145 12.8709L13.5197 12.9701L13.522 13.6001L13.5243 14.23L13.2324 14.4942C13.0719 14.6394 12.8601 14.8887 12.7617 15.048L12.5829 15.3378H11.7111H10.8393V15.092C10.8393 14.6001 10.6192 14.4591 9.8516 14.4591H9.34888L9.26306 14.2173C9.08317 13.7109 8.74233 13.4827 8.1656 13.4827H7.8171L7.80265 11.1517C7.78961 9.0448 7.77995 8.80227 7.70179 8.62917C7.56608 8.3286 7.31003 8.04966 7.02494 7.89173L6.76309 7.7467L4.0159 7.73293C2.25921 7.72414 1.20212 7.73713 1.08399 7.76891C0.609142 7.89676 0.184334 8.34515 0.0674172 8.84181C-0.0162066 9.19696 -0.0247499 11.7598 0.0570677 11.9394C0.169884 12.1871 0.557054 12.2091 0.682368 11.9749C0.715466 11.9131 0.734162 11.3683 0.734162 10.4669C0.734162 9.09293 0.737091 9.05017 0.845222 8.84572C0.993382 8.56556 1.20749 8.45455 1.59989 8.45455H1.90578V12.4015C1.90578 15.1572 1.92208 16.3951 1.95972 16.5031C2.04979 16.7615 2.3546 16.8416 2.5404 16.6558C2.63647 16.5598 2.63803 16.4931 2.63803 12.5064V8.45455H3.1018H3.56556V10.4729C3.56556 12.4335 3.56839 12.4938 3.66383 12.5802C3.79852 12.702 4.03474 12.6935 4.1663 12.562C4.27258 12.4558 4.27351 12.4397 4.28766 10.4547L4.30192 8.45455H4.73922H5.17653V12.5045V16.5544L5.28339 16.6539C5.48066 16.8377 5.76429 16.7629 5.85484 16.5031C5.89248 16.3951 5.90879 15.1572 5.90879 12.4015V8.45455H6.21467C6.60746 8.45455 6.82118 8.56546 6.96983 8.8466L7.08133 9.05749L7.06868 16.4167C7.05599 23.7636 7.05584 23.7762 6.95533 23.9108C6.76436 24.1666 6.61234 24.2426 6.25051 24.263L5.91196 24.2822L5.89814 22.2766C5.88452 20.2892 5.8834 20.27 5.77786 20.1645C5.63756 20.0242 5.37941 20.0286 5.26235 20.1732C5.18361 20.2704 5.17653 20.4436 5.17653 22.2752V24.2713H4.73717H4.29782V20.3203C4.29782 17.7048 4.28068 16.3242 4.2471 16.2359C4.1457 15.9692 3.86779 15.8899 3.67242 16.0719L3.56556 16.1715V20.2214V24.2713H3.1018H2.63803V22.253C2.63803 20.2923 2.6352 20.2321 2.53976 20.1457C2.40508 20.0238 2.16885 20.0324 2.03729 20.1638C1.93096 20.2702 1.93009 20.2856 1.91642 22.2766L1.9026 24.2822L1.56405 24.263C1.20222 24.2426 1.0502 24.1666 0.859232 23.9108C0.759205 23.7768 0.758473 23.7429 0.745537 18.4485L0.732454 13.1211L0.627155 13.009C0.498473 12.872 0.2972 12.8642 0.14157 12.9902L0.026313 13.0835V18.4456C0.026313 23.588 0.0300719 23.8174 0.118626 24.047C0.222802 24.3169 0.478214 24.6223 0.736018 24.7851C1.07408 24.9985 1.28174 25.0115 4.07814 24.9949L6.71427 24.9792L6.94908 24.8592C7.27205 24.6942 7.50984 24.4499 7.66079 24.1281L7.78825 23.8564L7.80275 21.5986L7.8172 19.3408H8.08994C8.50215 19.3408 8.73472 19.2512 8.99476 18.9923C9.15806 18.8296 9.24129 18.6981 9.28122 18.5394L9.33756 18.3156H9.92249H10.5074L10.6733 18.1496C10.8187 18.0043 10.8393 17.9528 10.8393 17.7347V17.4857H11.7143H12.5892L12.819 17.8313C13.4138 18.7261 14.5314 19.1474 15.5855 18.8742C16.4291 18.6556 17.1778 17.8964 17.4119 17.022C17.5491 16.5095 17.4702 15.7555 17.2291 15.2753C17.0701 14.9587 16.7528 14.5675 16.5185 14.3992L16.3068 14.2472V13.6004V12.9535L16.4464 12.9228C16.5904 12.8912 16.7906 12.7089 16.8867 12.5218C16.9168 12.4631 16.9415 12.2747 16.9415 12.1031C16.9415 11.8303 16.9573 11.7763 17.0682 11.6728C17.3091 11.4477 17.332 11.3471 17.332 10.5149C17.332 9.67786 17.3201 9.63734 17.0496 9.55484C16.9424 9.52218 16.9385 9.5027 16.9519 9.07311L16.9659 8.62541L17.2668 8.59221C17.6357 8.5515 17.8145 8.46309 18.0123 8.22369C18.3508 7.81377 18.3179 7.24613 17.9344 6.88332C17.7464 6.70547 17.5747 6.64831 17.2287 6.64831H16.9363L16.9511 6.39202L16.9659 6.13573L17.2588 6.09965C17.6535 6.05103 17.7949 5.98557 17.9852 5.76325C18.3324 5.35758 18.3387 4.85154 18.0013 4.46735C17.8012 4.23938 17.601 4.15863 17.2359 4.15863H16.9415V3.94618C16.9415 3.56824 16.6342 3.2395 16.2392 3.19498L16.0139 3.1696V1.83103C16.0139 0.350305 16.0024 0.285231 15.7064 0.104852C15.4828 -0.0315922 14.4125 -0.0360345 14.1619 0.0983592ZM15.2817 1.96186V3.18229H14.9156H14.5494V1.96186V0.741428H14.9156H15.2817V1.96186ZM16.2092 4.08541C16.2092 4.18929 16.1853 4.25646 16.1482 4.25671C16.1147 4.25695 15.5627 4.31187 14.9216 4.37875C14.2805 4.44563 13.7258 4.50035 13.689 4.50035C13.6405 4.50035 13.6219 4.4282 13.6219 4.24001C13.6219 4.09678 13.6365 3.96497 13.6545 3.94711C13.6723 3.92919 14.2545 3.91455 14.9481 3.91455H16.2092V4.08541ZM17.4845 5.00678C17.5514 5.15358 17.4719 5.31921 17.3184 5.3528C17.2588 5.36588 16.1994 5.47577 14.9644 5.59703C13.7293 5.71834 12.6592 5.82803 12.5864 5.84082C12.351 5.88212 12.1973 5.57702 12.378 5.42705C12.4497 5.36764 16.5949 4.9091 17.1744 4.8965C17.4006 4.89157 17.4381 4.9049 17.4845 5.00678ZM16.2092 6.47745C16.2092 6.62512 16.1928 6.74594 16.1726 6.74599C16.1524 6.74599 15.5978 6.80091 14.94 6.86799C14.2822 6.93506 13.7165 6.98998 13.6829 6.98998C13.6415 6.99003 13.6219 6.90382 13.6219 6.72154C13.6219 6.46193 13.6263 6.45294 13.7561 6.44987C13.83 6.44811 14.3627 6.39588 14.94 6.33378C15.5172 6.27169 16.0389 6.21818 16.0994 6.21491C16.2007 6.20939 16.2092 6.2298 16.2092 6.47745ZM17.4768 7.47498C17.5429 7.59849 17.5406 7.63661 17.4606 7.74596C17.406 7.82075 17.2597 7.8519 16.6465 7.91931C15.9843 7.9922 15.8888 8.01412 15.81 8.11141C15.6238 8.34134 15.7828 8.69863 16.0713 8.69863H16.2092V9.11358V9.52852H14.9156H13.6219V9.24368V8.95888L14.1604 8.90659C14.7453 8.84982 14.9084 8.78211 14.9606 8.57425C14.9994 8.41974 14.8897 8.22603 14.7287 8.16486C14.6383 8.1305 13.5619 8.21305 12.6323 8.32562C12.51 8.34041 12.424 8.32367 12.376 8.27568C12.2832 8.18283 12.2833 7.99537 12.3763 7.91819C12.4454 7.86083 16.5949 7.40102 17.1716 7.38682C17.3773 7.38179 17.4359 7.39873 17.4768 7.47498ZM16.5998 10.7008V11.1408L14.9278 11.1279L13.2558 11.1151L13.2417 10.6879L13.2276 10.2608H14.9137H16.5998V10.7008ZM16.2092 12.0426V12.2135H14.9156H13.6219V12.0426V11.8718H14.9156H16.2092V12.0426ZM15.5746 13.7581V14.5705L15.7492 14.7222C16.3423 15.2377 16.4475 15.3542 16.5815 15.6442C16.7049 15.9113 16.7218 16.004 16.7218 16.4117C16.7218 16.8131 16.7041 16.9132 16.5906 17.1555C16.4225 17.5141 16.0406 17.8954 15.6837 18.0611C15.1668 18.301 14.4537 18.259 13.9819 17.9609C12.8504 17.246 12.8105 15.6264 13.9064 14.8914C14.0318 14.8072 14.162 14.7043 14.1955 14.6626C14.2389 14.6087 14.2565 14.3498 14.2565 13.7663V12.9457H14.9156H15.5746V13.7581ZM3.70171 13.5493C3.5579 13.6586 3.51674 13.861 3.51674 14.4591C3.51674 14.7777 3.53959 15.0986 3.56746 15.1719C3.66939 15.44 3.89986 15.5077 4.12037 15.3342L4.249 15.2331V14.4591V13.6851L4.12037 13.5839C3.97426 13.469 3.8238 13.4565 3.70171 13.5493ZM8.49419 14.3218C8.59095 14.4257 8.59373 14.4836 8.59373 16.3988V18.3689L8.47389 18.4887C8.37552 18.5871 8.30571 18.6085 8.08335 18.6085H7.81266V16.4117V14.215H8.10366C8.34017 14.215 8.4133 14.235 8.49419 14.3218ZM10.1071 16.3873V17.5834H9.71653H9.32599V16.3873V15.1913H9.71653H10.1071V16.3873ZM14.6909 15.2376C14.4252 15.2884 14.0932 15.5044 13.9512 15.7189C13.594 16.2588 13.6798 16.8934 14.1662 17.3098C14.4007 17.5106 14.6136 17.5832 14.9644 17.582C15.5948 17.5799 16.1137 17.0297 16.1105 16.3664C16.1071 15.6611 15.4033 15.1016 14.6909 15.2376ZM15.1089 15.9991C15.4043 16.1393 15.4655 16.4795 15.2366 16.7084C15.0032 16.9419 14.6727 16.8926 14.5224 16.602C14.3926 16.351 14.5422 16.0252 14.8179 15.9585C14.8716 15.9455 14.9232 15.9324 14.9326 15.9292C14.942 15.9261 15.0213 15.9576 15.1089 15.9991ZM12.3771 16.3872V16.7044L11.6082 16.7045L10.8393 16.7047V16.3873V16.07L11.6082 16.07H12.3771V16.3872ZM2.11671 17.3485C1.93365 17.437 1.89704 17.6204 1.91422 18.3637C1.9294 19.0237 1.93565 19.0612 2.04544 19.15C2.20156 19.2762 2.40234 19.268 2.5319 19.1302C2.63149 19.0241 2.63803 18.9704 2.63803 18.255V17.4928L2.5094 17.3917C2.36817 17.2806 2.27781 17.2706 2.11671 17.3485ZM5.29003 17.4075C5.159 17.5202 5.15334 17.5443 5.13542 18.0673C5.11238 18.7414 5.15148 19.0207 5.28651 19.1465C5.50468 19.3498 5.8258 19.2066 5.88731 18.8785C5.90483 18.7852 5.91127 18.4427 5.90171 18.1174C5.88462 17.5395 5.88111 17.5233 5.74735 17.4082C5.57473 17.2598 5.46196 17.2596 5.29003 17.4075Z" fill="black"/>
</svg>
