<svg width="100" height="100" viewBox="0 0 25 21" fill="none" xmlns="http://www.w3.org/2000/svg">
<path d="M0.158009 14.0531C-0.813947 8.29131 2.7854 2.50383 8.55312 0.555313C10.6831 -0.164208 14.0087 -0.18722 16.2631 0.502065C23.5133 2.71843 27.0448 10.7161 23.7732 17.5097C23.406 18.2718 22.7042 19.3514 22.2139 19.9088L21.322 20.9221L20.6593 20.395L19.9965 19.8679L21.0003 18.7159C23.513 15.8325 24.0102 11.3238 22.2303 7.55974C21.3065 5.60641 18.6666 3.1511 16.6965 2.41312C11.7902 0.575115 6.58551 2.07008 3.68326 6.15014C1.03953 9.86735 1.14658 15.0389 3.94151 18.6357L4.89712 19.8655L4.30735 20.4327L3.71786 21L2.90717 20.0635C1.66226 18.6255 0.500973 16.0864 0.158009 14.0531Z" fill="black"/>
<path d="M6.39782 7.07917C7.30794 6.07655 8.90916 5.02951 10.083 4.66962C11.6439 4.19065 13.1789 4.19279 14.8349 4.67604C16.2789 5.09721 18.7396 6.75085 18.7396 7.30019C18.7396 7.71895 15.5837 8.9244 14.9793 8.73629C14.7251 8.65736 14.0269 8.40958 13.4276 8.18561C10.4221 7.06231 7.01728 8.29425 5.02406 11.2261L4.57431 11.8876L4.57703 11.0923C4.57976 10.2235 5.61573 7.94051 6.39782 7.07917Z" fill="black"/>
<path d="M10.4262 12.9512C10.8231 12.6957 13.0705 11.7337 15.4203 10.8132C17.7704 9.89304 19.7998 9.24014 19.93 9.36243C20.2433 9.65676 15.3203 18.0994 14.5445 18.599C12.2802 20.0562 8.93286 18.3868 8.93286 15.8001C8.93286 14.8392 9.66619 13.4403 10.4262 12.9512Z" fill="black"/>
</svg>
