<svg width="95" height="95" viewBox="0 0 21 25" fill="none" xmlns="http://www.w3.org/2000/svg">
<path fill-rule="evenodd" clip-rule="evenodd" d="M8.69657 0.00969976C8.56031 0.0177512 8.0122 0.0443417 7.47853 0.0687851C5.67876 0.151199 3.82259 0.314086 3.43215 0.423875C3.1212 0.511326 2.86727 0.666286 2.78989 0.81592C2.73766 0.916914 2.7266 1.0772 2.73225 1.65042L2.73923 2.3599L1.38436 9.48235L0.0294803 16.6048L0.0147401 17.3853L0 18.1657L0.125561 18.4208C0.497786 19.1769 1.76447 19.91 3.62828 20.4479C3.668 20.4593 3.67989 20.7318 3.67989 21.6305V22.7982L3.53067 22.9173C3.39598 23.0247 3.38351 23.0515 3.40242 23.1925C3.45556 23.5887 3.78761 23.8438 4.69285 24.1838C5.98327 24.6686 7.67668 24.9515 9.54301 24.9942C11.8612 25.0472 13.957 24.7369 15.5842 24.0997C16.1195 23.89 16.3845 23.7156 16.5262 23.4795C16.7143 23.1659 16.7142 23.1263 16.5242 22.9363L16.3558 22.7679V21.6182V20.4685L16.5313 20.4248C18.1379 20.0243 19.5841 19.1917 19.9924 18.4323L20.1313 18.1738L20.1476 17.4359C20.1574 16.9925 20.1481 16.6877 20.1243 16.6721C20.1026 16.6578 19.4759 13.4224 18.7317 9.48235L17.3786 2.31861L17.3853 1.6555C17.3889 1.29079 17.3736 0.944247 17.3513 0.885368C17.2898 0.723678 17.104 0.572022 16.8515 0.477345C16.4904 0.341916 15.1968 0.207766 13.0939 0.0876545C12.0561 0.0283627 9.22846 -0.0217629 8.69657 0.00969976ZM8.8891 2.07087C8.77163 4.50733 7.97673 19.0313 7.95988 19.0481C7.9316 19.0764 6.73746 18.9949 6.70505 18.9624C6.69229 18.9497 7.0103 15.116 7.41176 10.4431C7.81322 5.77025 8.1411 1.91571 8.14044 1.87747C8.13891 1.79428 8.25861 1.76991 8.63463 1.77689L8.90302 1.78185L8.8891 2.07087ZM10.4257 1.97797C10.4423 2.14429 10.872 18.8188 10.8657 19.0512C10.8646 19.0907 10.675 19.1028 10.0591 19.1028C9.61629 19.1028 9.25348 19.0889 9.2529 19.0718C9.247 18.9 9.67431 2.42737 9.69202 2.14313L9.71589 1.7612H10.06H10.4041L10.4257 1.97797ZM11.9561 1.8084C11.984 1.83932 13.438 18.9377 13.4146 18.961C13.3826 18.993 12.1881 19.0778 12.1604 19.0501C12.1379 19.0277 11.2379 2.40743 11.2366 1.9928L11.2359 1.74956L11.5893 1.77161C11.7837 1.78375 11.9487 1.8003 11.9561 1.8084ZM7.23079 1.91538C7.23079 1.97744 6.80344 5.7857 6.28113 10.3781C5.75882 14.9706 5.33147 18.757 5.33147 18.7923C5.33147 18.837 5.30311 18.851 5.23857 18.8381C5.18745 18.8279 4.9756 18.7972 4.76774 18.77C4.55989 18.7427 4.37112 18.7088 4.34828 18.6947C4.32157 18.6782 4.65825 15.7046 5.29324 10.3493C5.83582 5.77347 6.28472 1.99242 6.29075 1.94701C6.30058 1.87339 6.34207 1.86191 6.67338 1.84126C6.87777 1.8285 7.08677 1.81459 7.13789 1.8103C7.21349 1.80394 7.23079 1.82351 7.23079 1.91538ZM13.8208 1.85947C13.8232 1.8622 14.2728 5.64502 14.8199 10.2657C15.4644 15.7086 15.8 18.6761 15.7729 18.6929C15.734 18.717 15.2102 18.7982 14.9321 18.8233C14.8488 18.8308 14.8054 18.8144 14.7978 18.7725C14.7725 18.6312 12.8875 1.98516 12.8875 1.90254C12.8875 1.81401 12.8956 1.81277 13.352 1.83346C13.6075 1.84506 13.8184 1.85675 13.8208 1.85947ZM5.4885 1.97797C5.47875 2.02909 4.93311 5.75432 4.27599 10.2564C3.60115 14.8796 3.06323 18.442 3.0399 18.4422C3.01719 18.4425 2.79889 18.3844 2.55475 18.3132C2.20841 18.2122 2.11089 18.1679 2.11089 18.1113C2.11089 18.0013 4.59045 1.993 4.61064 1.97281C4.62546 1.95799 4.78856 1.94172 5.4292 1.89114C5.488 1.88652 5.50204 1.90708 5.4885 1.97797ZM15.3545 1.95146C15.451 1.96315 15.53 1.97739 15.53 1.98313C15.53 1.98887 16.0874 5.59696 16.7687 10.0011C17.45 14.4053 18.0074 18.048 18.0074 18.0962C18.0074 18.1721 17.9465 18.2015 17.5495 18.3175C17.2977 18.3911 17.0779 18.4354 17.061 18.4158C17.0441 18.3962 16.4959 14.7106 15.8428 10.2256C15.1897 5.74048 14.6459 2.02958 14.6343 1.97913C14.6138 1.8897 14.6204 1.88792 14.8962 1.90881C15.0517 1.92058 15.258 1.93978 15.3545 1.95146ZM3.91949 2.16378C3.87143 2.4751 1.18534 17.763 1.17642 17.7757C1.15809 17.8019 0.659972 17.4843 0.643456 17.436C0.634702 17.4103 1.24467 13.9528 1.99891 9.75259C3.36658 2.13636 3.37055 2.1158 3.47348 2.08718C3.53022 2.07137 3.65776 2.05663 3.75681 2.05436C3.93085 2.05035 3.93642 2.05411 3.91949 2.16378ZM16.7472 2.10085C16.7517 2.10708 17.3728 5.55864 18.1273 9.771L19.4993 17.4298L19.3884 17.5183C19.1747 17.6886 18.9581 17.792 18.9389 17.7327C18.9292 17.7028 18.3144 14.2131 17.5727 9.97782C16.831 5.74255 16.2137 2.22327 16.2009 2.15721L16.1777 2.03706L16.4584 2.06328C16.6128 2.07773 16.7428 2.09462 16.7472 2.10085ZM5.12502 21.4269C5.86683 21.6475 6.65323 21.7897 7.72627 21.8973C8.7493 21.9998 11.369 21.9998 12.392 21.8973C13.7873 21.7574 14.9201 21.5136 15.6022 21.2062L15.8603 21.0899V21.991V22.892L15.7251 22.9562C13.5864 23.9711 9.27235 24.2334 6.16366 23.5376C5.53846 23.3977 5.11136 23.2634 4.63987 23.0584L4.25794 22.8925V21.9912V21.0899L4.516 21.2062C4.65796 21.2701 4.93199 21.3694 5.12502 21.4269ZM4.91858 21.6131C4.8085 21.65 4.79599 21.716 4.79533 22.2635C4.79467 22.8339 4.81498 22.9015 4.98732 22.9015C5.13241 22.9015 5.16631 22.7802 5.16631 22.2615C5.16631 21.6907 5.11194 21.5483 4.91858 21.6131ZM15.0488 21.6415C14.9836 21.6892 14.9706 21.7678 14.9592 22.1858C14.944 22.7396 14.9823 22.9015 15.1285 22.9015C15.3035 22.9015 15.3236 22.8356 15.3229 22.2635C15.3226 21.9672 15.3086 21.7048 15.292 21.6804C15.2383 21.6021 15.1273 21.5843 15.0488 21.6415ZM5.66076 21.9751C5.63862 22.0334 5.6205 22.2914 5.6205 22.5486C5.6205 22.9449 5.63235 23.0308 5.69825 23.1122C5.76683 23.1969 5.78863 23.2024 5.88405 23.1589L5.9921 23.1097V22.539C5.9921 21.9336 5.97336 21.8692 5.79701 21.8692C5.73198 21.8692 5.68805 21.9034 5.66076 21.9751ZM14.1757 21.9188C14.1419 21.9525 14.1261 22.1502 14.1261 22.539V23.1097L14.2342 23.1589C14.3301 23.2026 14.3514 23.1969 14.4231 23.1083C14.4958 23.0186 14.5026 22.955 14.4905 22.4786C14.48 22.063 14.4637 21.9402 14.4152 21.9096C14.3302 21.8559 14.2349 21.8596 14.1757 21.9188ZM6.53713 22.1252C6.47449 22.1878 6.46871 23.202 6.53031 23.3171C6.58197 23.4136 6.70571 23.4206 6.79432 23.3321C6.84655 23.2798 6.85918 23.1638 6.85918 22.7363C6.85918 22.3087 6.84655 22.1928 6.79432 22.1405C6.71702 22.0633 6.60571 22.0566 6.53713 22.1252ZM13.3416 22.116C13.2459 22.1764 13.2267 23.1556 13.3185 23.2957C13.355 23.3514 13.4179 23.3969 13.4582 23.3969C13.6093 23.3969 13.6307 23.3152 13.6307 22.7363C13.6307 22.1654 13.6083 22.0749 13.4676 22.0763C13.4324 22.0767 13.3757 22.0945 13.3416 22.116ZM7.38414 22.2251C7.36791 22.2413 7.35466 22.5203 7.35466 22.8449C7.35466 23.393 7.36056 23.4385 7.43724 23.4795C7.49608 23.511 7.54389 23.5108 7.60347 23.4789C7.68254 23.4366 7.68654 23.4006 7.67573 22.8272L7.66433 22.2202L7.53898 22.2079C7.47002 22.2011 7.40037 22.2089 7.38414 22.2251ZM12.4583 22.2648C12.4227 22.3578 12.4284 23.3673 12.4649 23.4206C12.5185 23.4989 12.6296 23.5167 12.708 23.4594C12.7732 23.4118 12.7862 23.3331 12.7976 22.9152C12.8136 22.3331 12.7774 22.1995 12.6039 22.1995C12.5321 22.1995 12.4733 22.226 12.4583 22.2648ZM8.24532 22.347C8.19329 22.399 8.18045 22.5138 8.18045 22.9278C8.18045 23.4882 8.21212 23.6034 8.36625 23.6034C8.52039 23.6034 8.55206 23.4882 8.55206 22.9278C8.55206 22.5138 8.53922 22.399 8.48719 22.347C8.45147 22.3113 8.39706 22.2821 8.36625 22.2821C8.33545 22.2821 8.28103 22.3113 8.24532 22.347ZM11.6311 22.347C11.579 22.399 11.5662 22.5138 11.5662 22.9278C11.5662 23.4814 11.5985 23.6034 11.7452 23.6034C11.9187 23.6034 11.9378 23.5372 11.9378 22.9359C11.9378 22.4163 11.9309 22.3639 11.8579 22.3248C11.7494 22.2668 11.7072 22.2709 11.6311 22.347ZM9.07259 22.4713C9.0588 22.5072 9.04753 22.7853 9.04753 23.0892C9.04753 23.5995 9.05385 23.6451 9.13011 23.686C9.18878 23.7173 9.2366 23.7173 9.29527 23.686C9.37194 23.6449 9.37785 23.5995 9.37785 23.0489C9.37785 22.5464 9.3679 22.4523 9.31253 22.431C9.19824 22.3872 9.09844 22.4039 9.07259 22.4713ZM9.91606 22.4858C9.89256 22.5298 9.87332 22.7963 9.87332 23.0781C9.87332 23.5222 9.8834 23.5997 9.94884 23.6589C10.0456 23.7465 10.0922 23.745 10.1766 23.6517C10.2328 23.5896 10.2449 23.4811 10.2449 23.0406C10.2449 22.6791 10.2288 22.489 10.1954 22.4555C10.1195 22.3797 9.96383 22.3966 9.91606 22.4858ZM10.79 22.4555C10.7562 22.4893 10.7404 22.6864 10.7404 23.0734C10.7404 23.5924 10.7473 23.6454 10.82 23.6843C10.926 23.7411 11.0272 23.6973 11.0739 23.5744C11.1245 23.4414 11.1229 22.6463 11.0718 22.5119C11.028 22.3968 10.8786 22.3669 10.79 22.4555Z" fill="black"/>
</svg>
