<svg width="40" height="28" viewBox="0 0 40 28" fill="none" xmlns="http://www.w3.org/2000/svg">
<path d="M10.3109 18.3642C4.60025 20.3946 1.05753 25.3439 0 27.5647C2.15736 26.5495 6.71531 26.8244 8.72462 27.0888C10.9454 27.4589 15.8629 28.0723 17.7665 27.5647C20.1459 26.9302 21.8909 25.5738 22.5254 24.9393C23.6358 23.8289 23.4243 20.7965 23.3185 19.4746V16.532C23.3185 15.4215 23.4772 13.9939 23.7944 13.2007C24.302 11.9317 25.7508 11.2258 26.4911 11.0672C26.6497 11.6144 26.4911 12.1063 26.4911 12.8121C26.4911 13.518 28.3947 15.1043 29.0292 15.5088C29.6637 15.9134 34.264 19.2287 34.5812 19.7045C34.8985 20.1804 34.9619 20.9736 35.2157 21.2908C35.6387 21.8196 36.8655 22.6472 38.3883 22.0126C39.9112 21.3781 40.0804 19.6332 39.9746 18.8401C39.8689 18.2055 39.467 16.651 38.7056 15.5088C37.9442 14.3667 37.648 12.6006 37.5952 11.8604C37.5423 11.2787 37.4048 9.79818 37.2779 8.52915C36.802 6.94285 36.4848 7.26011 36.0089 6.30833C35.533 5.35656 35.6916 4.56341 35.6916 4.24615C35.6916 3.99235 36.2204 3.18862 36.4848 2.81849C36.6434 2.44835 36.7386 1.67636 35.8502 1.54945C34.9619 1.42255 33.1535 2.55411 32.3604 3.13575C30.9327 2.23685 27.5063 0.375597 25.2221 0.12179C22.9378 -0.132017 20.9391 0.0286347 19.5114 0.439049C17.6079 0.986271 16.434 2.24742 14.2766 2.50123C11.5799 2.81849 10.4695 1.86671 9.67639 1.54945C10.1523 4.24615 12.0558 4.56341 12.0558 4.72204C10.7868 5.86417 10.258 8.15901 10.1523 9.16367L14.5939 5.35656C15.8101 4.45766 19.1307 2.65986 22.684 2.65986C26.2373 2.65986 27.9717 4.1404 28.3947 4.88067C26.4911 4.24615 23.7944 4.17718 22.2081 4.24616C18.5596 4.40478 13.4835 9.21654 10.9454 11.7017C7.93147 14.2398 3.48985 15.8261 2.22081 16.4606C5.86929 15.9847 10.4695 18.2055 10.3109 18.3642Z" fill="#AF1313"/>
</svg>
