<svg width="30" height="30" viewBox="0 0 23 25" fill="none" xmlns="http://www.w3.org/2000/svg">
<path fill-rule="evenodd" clip-rule="evenodd" d="M17.3624 0.301589C17.1034 0.474994 16.6295 0.831083 16.3095 1.09288L15.7275 1.5689L12.0628 1.28091C10.0472 1.12253 8.34497 0.99568 8.2801 0.998983C8.21522 1.00236 8.49833 1.17679 8.90923 1.38669C9.79552 1.83935 9.86653 1.80246 7.77474 1.9761C6.95609 2.04397 6.27528 2.11066 6.26168 2.12419C6.24815 2.13779 6.55234 2.28784 6.9376 2.45771C7.32287 2.62757 7.59678 2.78839 7.54621 2.81505C7.49572 2.84179 6.79967 2.92657 5.99949 3.0034C5.19931 3.08031 4.51513 3.16933 4.47903 3.20134C4.44301 3.23327 4.68405 3.4088 5.01482 3.59132C5.34551 3.77393 5.60502 3.93381 5.5915 3.94671C5.57805 3.95952 4.98344 4.0469 4.27016 4.14079C3.55696 4.23477 2.96518 4.31978 2.95511 4.32977C2.94513 4.33984 3.23673 4.48304 3.60312 4.64811C3.96959 4.8131 4.26937 4.97196 4.26937 5.00097C4.26937 5.03007 4.10132 5.09818 3.89583 5.15244C2.32858 5.56601 1.75048 5.74665 1.84312 5.794C1.90155 5.82388 2.24215 5.92981 2.59997 6.02929C2.95771 6.12885 3.23351 6.22723 3.21274 6.24792C3.19206 6.2686 2.66933 6.45168 2.05113 6.65465L0.927106 7.02379L1.48979 7.19539C1.79932 7.28984 2.09124 7.36706 2.13858 7.36706C2.37332 7.36706 2.14566 7.54157 1.34092 7.97866C0.826366 8.25807 0.50598 8.47442 0.574162 8.49651C0.638491 8.51735 0.936071 8.61283 1.23546 8.70869C1.67216 8.84859 1.75654 8.90026 1.66248 8.97041C1.598 9.01854 1.19755 9.32327 0.772575 9.64767L0 10.2375L0.384872 10.2998C0.596575 10.3341 0.870877 10.3872 0.994423 10.4178L1.21902 10.4734L0.660197 11.1548C0.352865 11.5296 0.101369 11.8569 0.101369 11.8823C0.101369 11.9076 0.343507 11.9283 0.639435 11.9283H1.1775L1.17027 13.4814C1.16429 14.7683 1.19504 15.2301 1.34988 16.1749C1.45259 16.8021 1.56953 17.3506 1.60971 17.3939C1.65478 17.4424 1.66209 16.8997 1.62875 15.9783C1.44119 10.7922 3.12765 6.86053 6.54998 4.50514C8.48551 3.17303 11.3692 2.18938 13.9423 1.98342C14.2667 1.95747 14.7409 1.91547 14.9961 1.89007L15.4602 1.84399L15.3038 2.06929C15.2179 2.19323 15.1251 2.35657 15.0978 2.4323C15.0629 2.52919 14.9632 2.56993 14.7609 2.56993C14.274 2.56993 12.8511 2.8005 11.819 3.04673C9.01917 3.71456 7.54778 4.50459 5.67698 6.34472C4.16533 7.83152 3.06254 9.83311 2.48012 12.1471C2.2902 12.9015 2.26787 13.1342 2.26684 14.3662C2.26582 15.5596 2.28973 15.8312 2.44693 16.4108C3.10084 18.8225 4.96032 21.0721 7.56886 22.6073C9.26304 23.6044 11.8323 24.5068 13.9816 24.8596C15.2521 25.0683 15.2043 25.075 15.3259 24.6682C15.4995 24.0875 15.6725 22.844 15.6718 22.1816C15.6705 20.859 15.395 19.9614 14.649 18.8487C13.8871 17.7126 13.3507 16.472 13.1078 15.2844C12.927 14.4005 12.9873 13.0723 13.2363 12.4494C13.4367 11.9483 14.015 11.2556 14.4652 10.9773L14.7428 10.8057L15.226 11.3474C16.4575 12.7277 17.4992 13.4212 18.7436 13.6891C18.9052 13.7238 18.9636 13.8056 19.0425 14.1082C19.1814 14.6404 19.5082 15.0826 19.9202 15.2959C20.3988 15.5438 21.0505 15.4995 21.7518 15.1713C22.5938 14.7773 22.8814 14.2011 22.8124 13.0464C22.7733 12.3915 22.6499 12.0806 22.1159 11.2925C21.9395 11.0322 21.6099 10.2911 21.3065 9.47254C20.4439 7.14506 19.6073 5.41943 18.9847 4.68334C18.7442 4.39897 18.708 4.28887 18.6051 3.52849C18.4963 2.72485 18.5088 1.51031 18.6315 0.968863C18.6802 0.753621 18.6746 0.748195 18.4995 0.841936C18.3989 0.895805 18.1476 1.09791 17.941 1.29121L17.5653 1.64266L17.6134 1.22154C17.6398 0.989939 17.7064 0.623626 17.7614 0.407362C17.8165 0.191176 17.8552 0.00801986 17.8475 0.00031298C17.8398 -0.0073939 17.6215 0.128184 17.3624 0.301589Z" fill="#AF1313"/>
</svg>
