<svg width="95" height="95" viewBox="0 0 28 21" fill="none" xmlns="http://www.w3.org/2000/svg">
<path fill-rule="evenodd" clip-rule="evenodd" d="M25.5165 0.0736184C25.4263 0.114642 24.5399 0.962956 23.547 1.95885C22.3066 3.2029 21.6856 3.78801 21.5626 3.8286C21.2612 3.92804 20.9885 3.84413 20.6498 3.54777C19.532 2.56977 17.9632 2.23748 16.544 2.67813C16.0768 2.82319 15.6308 3.04368 15.3086 3.28889C15.1756 3.39013 15.0352 3.49231 14.9967 3.51589C14.9509 3.54395 14.815 3.45561 14.6048 3.26099C14.1078 2.80098 13.8865 2.80366 13.3784 3.27565L13.0425 3.58765L12.7963 3.43006C12.0574 2.95714 10.9841 2.98362 10.2192 3.49373C10.0869 3.58191 8.25179 5.38443 6.14106 7.49939C3.14144 10.505 2.27417 11.4045 2.16956 11.6182C1.95537 12.0557 1.89284 12.3668 1.91899 12.8644C1.93835 13.2334 1.97539 13.3852 2.116 13.6719C2.21125 13.866 2.31909 14.0659 2.35558 14.1159C2.41198 14.193 2.37544 14.2571 2.11316 14.5403C1.77942 14.9007 1.68619 15.1493 1.80076 15.373C1.83703 15.4438 1.99241 15.631 2.14593 15.7891L2.42517 16.0763L1.24085 17.2659C0.0372181 18.4749 -0.0565558 18.6009 0.0197108 18.9068C0.0622209 19.0773 1.73149 20.7934 1.98393 20.9261C2.33019 21.1081 2.43726 21.036 3.72794 19.7521L4.91778 18.5684L5.20512 18.8476C5.36318 19.0011 5.55046 19.1564 5.6213 19.1927C5.84502 19.3072 6.09373 19.214 6.45378 18.8807L6.78702 18.5723L6.93304 18.6676C7.45263 19.0066 8.04181 19.137 8.63783 19.0448C9.43572 18.9213 9.28155 19.054 13.4455 14.9062C15.5327 12.8271 17.3465 10.9844 17.476 10.8113C17.7965 10.3832 17.9095 10.0312 17.9104 9.45764C17.9113 8.91586 17.8463 8.66703 17.5944 8.24881L17.4112 7.94469L17.7222 7.61388C18.1931 7.113 18.1959 6.88814 17.7376 6.39312L17.4411 6.07303L17.6418 6.01762C17.9426 5.93459 18.1201 5.99557 18.4788 6.30522C20.0346 7.6479 22.3472 7.72606 23.9366 6.48972C24.4758 6.07029 27.9393 2.55746 27.9808 2.3879C28.0533 2.09204 27.9556 1.9496 27.0579 1.04347C25.9819 -0.0426155 25.8942 -0.0978057 25.5165 0.0736184ZM26.2018 1.8291L26.6107 2.24114L24.9147 3.92393C23.111 5.7135 22.9618 5.83137 22.2339 6.04245C21.8314 6.15912 20.937 6.17427 20.5105 6.0716C20.0692 5.96538 19.5807 5.71142 19.2169 5.39904C19.0407 5.24774 18.7611 5.05909 18.5956 4.97977C18.3362 4.8555 18.2269 4.83625 17.8023 4.83986C17.3058 4.84407 16.9954 4.93361 16.7081 5.15541C16.6047 5.23527 16.5758 5.21722 16.1773 4.82284L15.7559 4.40583L15.9311 4.27449C16.4455 3.88882 17.1398 3.65963 17.7939 3.65963C18.6007 3.65963 19.2414 3.89297 19.8782 4.41868C20.3297 4.7915 20.4882 4.87847 20.8863 4.97206C21.2796 5.06456 21.7419 5.01516 22.1352 4.83865C22.4155 4.71296 22.6782 4.47409 24.0967 3.05527C24.9976 2.15423 25.7478 1.41701 25.7638 1.41701C25.7797 1.41701 25.9769 1.60243 26.2018 1.8291ZM12.0851 4.36945C12.1603 4.40938 12.3497 4.55821 12.5059 4.70021C12.9617 5.1146 13.1932 5.10563 13.6804 4.6547L14.0079 4.35156L15.3265 5.66996L16.6452 6.98829L16.342 7.31572C15.8765 7.81845 15.8781 8.01788 16.3524 8.55507C16.7977 9.05927 16.8832 9.48144 16.6406 9.97727C16.5313 10.2005 9.16042 17.581 8.88008 17.7478C8.36395 18.0551 7.87636 17.9669 7.31312 17.4644C7.03935 17.2202 6.94853 17.1701 6.77947 17.1701C6.5614 17.1701 6.2839 17.3405 5.98683 17.6569L5.82466 17.8296L4.49668 16.5027L3.16874 15.1759L3.40618 14.9286C3.74326 14.5776 3.82379 14.4387 3.82379 14.2086C3.82379 14.0443 3.77482 13.9519 3.56189 13.7149C3.19571 13.3072 3.11151 13.1572 3.07475 12.8469C3.00565 12.2636 2.86794 12.4237 6.98983 8.29273C9.05499 6.22301 10.8231 4.48054 10.9189 4.42059C11.2436 4.21728 11.7561 4.1948 12.0851 4.36945ZM11.1824 5.78181C11.062 5.8713 10.1449 6.76726 9.14439 7.77288L7.32526 9.60128V9.86186C7.32526 10.0769 7.35317 10.1503 7.48518 10.2823C7.61228 10.4094 7.6933 10.4422 7.88008 10.4422H8.11507L10.1 8.46055C12.2227 6.34116 12.2431 6.31539 12.0662 5.97331C11.9509 5.75047 11.8496 5.67805 11.6085 5.64638C11.4391 5.62412 11.3612 5.6489 11.1824 5.78181ZM4.04263 17.7437C4.04263 17.7748 3.63635 18.206 3.1398 18.7017L2.23702 19.6031L1.81361 19.1798L1.39021 18.7565L2.31881 17.8269L3.24747 16.8973L3.64505 17.2921C3.86373 17.5093 4.04263 17.7125 4.04263 17.7437Z" fill="black"/>
</svg>
