<svg width="40" height="26" viewBox="0 0 40 26" fill="none" xmlns="http://www.w3.org/2000/svg">
<path fill-rule="evenodd" clip-rule="evenodd" d="M40 20C40 20.1863 39.9975 20.367 39.9924 20.5423C39.9974 20.6358 40 20.73 40 20.8247C40 21.1828 39.9635 21.5324 39.894 21.8699C39.5578 24.5048 38.4354 25.4941 36.7192 25.6282C36.1384 25.8549 35.5064 25.9794 34.8454 25.9794H20.0137C23.3097 25.972 25.9794 23.2978 25.9794 20C25.9794 19.0333 25.75 18.1202 25.3426 17.3121L34.2268 7.21651L32.9897 5.77321L22.6804 14.6392L22.7022 14.6646C21.8906 14.2528 20.9724 14.0206 20 14.0206C16.6977 14.0206 14.0206 16.6977 14.0206 20C14.0206 23.2978 16.6903 25.972 19.9863 25.9794H5.15464C4.49357 25.9794 3.86158 25.8549 3.28078 25.6282C1.56461 25.4941 0.442225 24.5048 0.106021 21.8699C0.0365138 21.5324 0 21.1828 0 20.8247C0 20.73 0.00255781 20.6358 0.00760835 20.5423C0.00254709 20.367 0 20.1863 0 20C0 8.95431 8.9543 0 20 0C31.0457 0 40 8.95431 40 20ZM17.3196 4.53609C14.5789 5.287 9.9667 7.93066 7.83506 9.91913C7.95681 10.0274 8.03883 10.0938 8.11288 10.1537L8.11293 10.1537L8.11295 10.1537C8.22407 10.2436 8.31728 10.319 8.5 10.5C10.7871 8.64435 15.4072 6.67639 18.5 6.00002C22.4698 5.13185 25.2197 6.39912 26.5354 7.00548C26.7231 7.09197 26.8816 7.16502 27.0103 7.2165L28.4536 5.7732C28.3509 5.73368 28.2398 5.69026 28.1207 5.64373C26.0651 4.84044 21.6373 3.1102 17.3196 4.53609ZM20 16.9794C18.3318 16.9794 16.9794 18.3318 16.9794 20C16.9794 21.6683 18.3318 23.0206 20 23.0206C21.6682 23.0206 23.0206 21.6683 23.0206 20C23.0206 18.3318 21.6682 16.9794 20 16.9794ZM11.5464 13.0108C12.9897 11.6518 15.0515 9.99775 16.9072 9.48456C20 8.45362 23.6788 9.4037 24.9485 9.89693L23.7113 11.134L23.6351 11.1085C22.9327 10.8723 20.8811 10.1825 18.5 10.5C15.4577 10.9056 13.7072 12.2191 12.0809 13.4394L12 13.5C11.9079 13.4079 11.8487 13.3374 11.793 13.2711C11.7241 13.1889 11.6605 13.1132 11.5464 13.0108Z" fill="#AF1313"/>
</svg>
