<svg width="30" height="30" viewBox="0 0 30 19" fill="none" xmlns="http://www.w3.org/2000/svg">
<path fill-rule="evenodd" clip-rule="evenodd" d="M19.2477 0.0315115C19.2141 0.0452419 19.1626 0.0830839 19.1332 0.115659C19.1038 0.148204 18.7413 0.865655 18.3275 1.70997C17.9137 2.55428 16.2173 6.01245 14.5577 9.39482C12.8982 12.7772 11.5045 15.6438 11.4606 15.765C11.286 16.2479 11.2883 16.7907 11.4671 17.2941C11.5927 17.6477 11.7295 17.8569 12.0364 18.1644C12.3365 18.4651 12.5548 18.5988 12.9762 18.7397C13.2643 18.8361 13.6794 18.8685 14.0152 18.821C14.8072 18.7089 15.5551 18.1216 15.8369 17.3905C15.9382 17.1277 19.7825 0.554788 19.7825 0.380921C19.7825 0.102325 19.5103 -0.0755308 19.2477 0.0315115ZM14.8047 2.23681C14.7718 2.27629 14.7445 2.6581 14.6845 3.91335C14.5996 5.69078 14.5956 5.61938 14.7819 5.64825C14.8348 5.65644 15.0128 5.68594 15.1773 5.71376C15.3419 5.74159 15.4824 5.75848 15.4896 5.7513C15.4968 5.74411 15.8448 5.04027 16.263 4.18719C16.6812 3.33414 17.0525 2.57912 17.0882 2.50941L17.1532 2.38267L16.9476 2.34881C16.5762 2.28762 15.8954 2.22597 15.3669 2.20566C14.9025 2.18785 14.8428 2.19114 14.8047 2.23681ZM13.0142 2.30738C12.2535 2.40842 11.1895 2.6468 10.5223 2.86566C9.24524 3.28458 7.95101 3.92768 6.85592 4.68748C6.45083 4.96855 6.4065 5.01869 6.46636 5.12774C6.5745 5.32465 7.7267 6.97988 7.77275 7.00442C7.81348 7.02616 7.96605 6.96311 8.41933 6.73727C9.88913 6.00502 11.2126 5.65729 12.8614 5.57016C13.2143 5.55149 13.5203 5.52251 13.5413 5.50577C13.5946 5.46317 13.5908 5.34243 13.4878 3.80828C13.4377 3.06316 13.3967 2.43737 13.3965 2.41762C13.3963 2.39789 13.3745 2.36023 13.3481 2.33389C13.3021 2.28807 13.2128 2.28098 13.0142 2.30738ZM19.4977 5.09915C19.2487 6.17764 19.038 7.08616 19.0297 7.11813C19.0083 7.19938 19.8163 7.77968 19.9154 7.75426C19.9944 7.73399 22.1709 4.44868 22.1904 4.32023C22.201 4.25033 22.1814 4.22488 22.0545 4.14399C21.7665 3.96041 20.4836 3.34553 19.9811 3.1502C19.9635 3.14335 19.7581 3.97162 19.4977 5.09915ZM23.2849 5.27722C22.577 6.10117 20.6992 8.40236 20.6992 8.44602C20.6992 8.47674 20.8351 8.64799 21.0012 8.82657C22.1121 10.0209 22.8308 11.1923 23.3751 12.6961C23.4926 13.0207 23.5503 13.1416 23.5955 13.1583C23.6387 13.1741 23.8411 13.1066 24.2788 12.9304C24.6208 12.7926 25.6689 12.3729 26.6078 11.9976C28.014 11.4356 28.3207 11.3027 28.3475 11.244C28.3757 11.1824 28.3444 11.1018 28.1168 10.6491C27.4011 9.22579 26.5995 8.07399 25.5064 6.89838C24.8233 6.1637 23.617 5.11739 23.453 5.11739C23.4361 5.11739 23.3604 5.18933 23.2849 5.27722ZM4.92951 6.31044C3.44176 7.80727 2.31456 9.60494 1.60396 11.614C1.51828 11.8562 1.51278 11.8916 1.55162 11.9506C1.58169 11.9964 1.78422 12.0888 2.21033 12.2513C2.70816 12.4411 2.83717 12.4798 2.88609 12.4537C2.91937 12.436 3.02961 12.2564 3.13109 12.0547C3.5088 11.3039 3.99643 10.5516 4.55916 9.85148C4.9498 9.36541 5.89009 8.43232 6.38336 8.04126C6.80844 7.70427 6.83945 7.67173 6.81311 7.59038C6.80373 7.5614 6.49007 7.18151 6.11608 6.74616C5.66886 6.22556 5.41316 5.95135 5.36906 5.94511C5.31797 5.93786 5.21356 6.02463 4.92951 6.31044ZM26.3559 13.379C23.8224 14.1006 23.7599 14.1218 23.8 14.2491C23.8472 14.3993 23.9432 15.1998 23.9741 15.7019C24.03 16.6102 23.943 17.754 23.752 18.6194C23.7188 18.7701 23.6843 18.9174 23.6753 18.9467C23.6599 18.9972 23.8179 19 26.6978 19C29.4885 19 29.7399 18.9959 29.7784 18.9496C29.8436 18.8712 29.8338 17.1067 29.7644 16.4275C29.6763 15.5651 29.5364 14.7372 29.3581 14.0224C29.1234 13.0814 28.9692 12.6605 28.8621 12.6691C28.8513 12.67 27.7235 12.9894 26.3559 13.379ZM1.14799 13.2993C1.08459 13.4218 0.959674 14.136 0.877782 14.8444C0.812268 15.4112 0.802154 17.1271 0.861312 17.6452C0.936237 18.3017 1.02766 18.8641 1.07035 18.9315C1.11035 18.9946 1.13632 19 1.40152 19C1.56375 19 1.69768 18.9865 1.70853 18.969C1.7191 18.952 1.73193 18.4896 1.73704 17.9415C1.75091 16.4588 1.8856 15.5103 2.26554 14.2202C2.43703 13.638 2.44341 13.6026 2.3853 13.5545C2.32935 13.5082 1.37528 13.2476 1.25855 13.2467C1.20993 13.2463 1.16419 13.2681 1.14799 13.2993ZM14.2265 15.4141C14.468 15.5246 14.6606 15.7119 14.7788 15.9512C14.8708 16.1374 14.8781 16.1746 14.8781 16.4573C14.8781 16.7248 14.868 16.7838 14.796 16.937C14.6912 17.1597 14.4695 17.3807 14.236 17.4948C14.0726 17.5748 14.0222 17.5843 13.7628 17.5843C13.5076 17.5843 13.4496 17.5738 13.2824 17.4968C13.0731 17.4005 12.8322 17.1718 12.7301 16.9725C12.4216 16.3699 12.7252 15.6118 13.369 15.3772C13.6088 15.2898 13.9908 15.3062 14.2265 15.4141Z" fill="#AF1313"/>
</svg>
